<svg width="155" height="155" viewBox="0 0 155 155" fill="none" xmlns="http://www.w3.org/2000/svg">
<path d="M71.0417 129.167L83.9584 129.167L83.9584 51.6667L96.8751 51.6667L96.8751 38.75L83.9584 38.75L83.9584 25.8333L71.0417 25.8333L71.0417 38.75L58.1251 38.75L58.1251 51.6667L71.0417 51.6667L71.0417 129.167ZM45.2084 64.5833L45.2084 51.6667L58.1251 51.6667L58.1251 64.5833L45.2084 64.5833ZM45.2084 64.5833L45.2084 77.5L32.2917 77.5L32.2917 64.5833L45.2084 64.5833ZM109.792 64.5833L109.792 51.6667L96.8751 51.6667L96.8751 64.5833L109.792 64.5833ZM109.792 64.5833L109.792 77.5L122.708 77.5L122.708 64.5833L109.792 64.5833Z" fill="white"/>
</svg>
