<svg width="6494" height="2610" viewBox="0 0 6494 2610" fill="none" xmlns="http://www.w3.org/2000/svg">
<path d="M6490.56 1304.66C6490.56 1483.89 6400.19 1654.88 6236.21 1810.68C6072.24 1966.47 5834.82 2106.89 5541.24 2224.87C4954.1 2460.82 4142.8 2606.81 3246.53 2606.81C2350.26 2606.81 1538.96 2460.82 951.819 2224.87C658.241 2106.89 420.828 1966.47 256.851 1810.68C92.8786 1654.88 2.5 1483.89 2.5 1304.66C2.5 1125.43 92.8786 954.429 256.851 798.638C420.828 642.841 658.241 502.423 951.819 384.445C1538.96 148.495 2350.26 2.5 3246.53 2.5C4142.8 2.5 4954.1 148.495 5541.24 384.445C5834.82 502.423 6072.24 642.841 6236.21 798.638C6400.19 954.429 6490.56 1125.43 6490.56 1304.66Z" stroke="white" stroke-width="5"/>
<path d="M5858.53 1304.66C5858.53 1448.86 5785.83 1586.48 5653.83 1711.91C5521.82 1837.35 5330.67 1950.43 5094.25 2045.45C4621.43 2235.49 3968.06 2353.08 3246.25 2353.08C2524.44 2353.08 1871.07 2235.49 1398.25 2045.45C1161.84 1950.43 970.681 1837.35 838.672 1711.91C706.668 1586.48 633.967 1448.86 633.967 1304.66C633.967 1160.46 706.668 1022.84 838.672 897.403C970.681 771.963 1161.84 658.881 1398.25 563.862C1871.07 373.828 2524.44 256.234 3246.25 256.234C3968.06 256.234 4621.43 373.828 5094.25 563.862C5330.67 658.881 5521.82 771.963 5653.83 897.403C5785.83 1022.84 5858.53 1160.46 5858.53 1304.66Z" stroke="white" stroke-width="5"/>
<path d="M5334.22 1364.94C5334.22 1479.94 5276.21 1589.75 5170.78 1689.89C5065.34 1790.04 4912.63 1880.34 4723.73 1956.22C4345.93 2107.99 3823.84 2201.92 3247.02 2201.92C2670.21 2201.92 2148.11 2107.99 1770.32 1956.22C1581.41 1880.34 1428.71 1790.04 1323.27 1689.89C1217.84 1589.75 1159.83 1479.94 1159.83 1364.94C1159.83 1249.94 1217.84 1140.13 1323.27 1039.99C1428.71 939.848 1581.41 849.548 1770.32 773.66C2148.11 621.89 2670.21 527.962 3247.02 527.962C3823.84 527.962 4345.93 621.89 4723.73 773.66C4912.63 849.548 5065.34 939.848 5170.78 1039.99C5276.21 1140.13 5334.22 1249.94 5334.22 1364.94Z" stroke="white" stroke-width="5"/>
<path d="M4804.93 1363.14C4804.93 1437.26 4761.88 1508.22 4683.21 1573.1C4604.55 1637.97 4490.59 1696.5 4349.54 1745.7C4067.48 1844.09 3677.64 1905 3246.93 1905C2816.21 1905 2426.38 1844.09 2144.31 1745.7C2003.26 1696.5 1889.3 1637.97 1810.65 1573.1C1731.98 1508.22 1688.93 1437.26 1688.93 1363.14C1688.93 1289.03 1731.98 1218.06 1810.65 1153.18C1889.3 1088.31 2003.26 1029.78 2144.31 980.584C2426.38 882.189 2816.21 821.285 3246.93 821.285C3677.64 821.285 4067.48 882.189 4349.54 980.584C4490.59 1029.78 4604.55 1088.31 4683.21 1153.18C4761.88 1218.06 4804.93 1289.03 4804.93 1363.14Z" stroke="white" stroke-width="5"/>
<path d="M4236.73 1346.02C4236.73 1392.78 4209.57 1437.69 4159.65 1478.87C4109.74 1520.03 4037.37 1557.22 3947.72 1588.5C3768.45 1651.04 3520.63 1689.77 3246.77 1689.77C2972.91 1689.77 2725.09 1651.04 2545.82 1588.5C2456.17 1557.22 2383.8 1520.03 2333.9 1478.87C2283.97 1437.69 2256.81 1392.78 2256.81 1346.02C2256.81 1299.26 2283.97 1254.35 2333.9 1213.17C2383.8 1172 2456.17 1134.82 2545.82 1103.54C2725.09 1040.99 2972.91 1002.26 3246.77 1002.26C3520.63 1002.26 3768.45 1040.99 3947.72 1103.54C4037.37 1134.82 4109.74 1172 4159.65 1213.17C4209.57 1254.35 4236.73 1299.26 4236.73 1346.02Z" stroke="white" stroke-width="5"/>
</svg>
