<svg width="155" height="155" viewBox="0 0 155 155" fill="none" xmlns="http://www.w3.org/2000/svg">
<path d="M83.9583 25.8333L71.0417 25.8333L71.0417 103.333L58.125 103.333L58.125 116.25L71.0417 116.25L71.0417 129.167L83.9583 129.167L83.9583 116.25L96.875 116.25L96.875 103.333L83.9583 103.333L83.9583 25.8333ZM109.792 90.4167L109.792 103.333L96.875 103.333L96.875 90.4167L109.792 90.4167ZM109.792 90.4167L109.792 77.5L122.708 77.5L122.708 90.4167L109.792 90.4167ZM45.2083 90.4167L45.2083 103.333L58.125 103.333L58.125 90.4167L45.2083 90.4167ZM45.2083 90.4167L45.2083 77.5L32.2917 77.5L32.2917 90.4167L45.2083 90.4167Z" fill="#7AFF8F"/>
</svg>
