<svg width="58" height="58" viewBox="0 0 58 58" fill="none" xmlns="http://www.w3.org/2000/svg">
<path d="M18.6568 39.7687L22.9126 38.541L48.5365 12.6102C48.7386 12.4031 48.8511 12.1247 48.8498 11.8354C48.8484 11.546 48.7333 11.2687 48.5292 11.0635L46.9947 9.512C46.8955 9.41011 46.777 9.32899 46.6462 9.27338C46.5153 9.21776 46.3747 9.18877 46.2325 9.1881C46.0903 9.18742 45.9494 9.21508 45.8181 9.26945C45.6867 9.32381 45.5675 9.40381 45.4673 9.50476L19.9111 35.3679L18.6568 39.7687ZM50.0324 6.43801L51.567 7.99192C53.684 10.1355 53.7033 13.5938 51.6057 15.7156L25.2012 42.4391L16.1048 45.0588C15.5495 45.2142 14.9551 45.143 14.4522 44.8607C13.9493 44.5784 13.5789 44.1082 13.4223 43.5532C13.3058 43.1541 13.3041 42.7303 13.4175 42.3303L16.0637 33.0503L42.3982 6.39692C42.8989 5.8927 43.4951 5.49324 44.1518 5.22182C44.8086 4.95041 45.5128 4.81248 46.2234 4.81608C46.934 4.81968 47.6368 4.96473 48.2908 5.24279C48.9447 5.52084 49.5368 5.92874 50.0324 6.43801ZM22.1948 9.22442C23.3935 9.22442 24.365 10.208 24.365 11.4212C24.3669 11.708 24.3123 11.9923 24.2042 12.2579C24.0962 12.5236 23.9368 12.7653 23.7352 12.9694C23.5337 13.1734 23.2939 13.3357 23.0296 13.447C22.7653 13.5582 22.4816 13.6163 22.1948 13.6179H13.5142C11.1168 13.6179 9.17383 15.5851 9.17383 18.009V44.3652C9.17383 46.7915 11.1168 48.7587 13.5142 48.7587H39.5562C41.9535 48.7587 43.8989 46.7915 43.8989 44.3652V35.5806C43.8989 34.3674 44.8704 33.3838 46.0691 33.3838C47.2677 33.3838 48.2393 34.3674 48.2393 35.583V44.3652C48.2393 49.2178 44.3508 53.1522 39.5562 53.1522H13.5142C8.7195 53.1522 4.8335 49.2178 4.8335 44.3652V18.009C4.8335 13.1588 8.7195 9.22442 13.5142 9.22442H22.1948Z" fill="white"/>
</svg>
